<?xml version="1.0" encoding="iso-8859-1"?>
<!-- Uploaded to: SVG Repo, www.svgrepo.com, Generator: SVG Repo Mixer Tools -->
<svg fill="#000000" height="800px" width="800px" version="1.1" id="Layer_1" xmlns="http://www.w3.org/2000/svg" xmlns:xlink="http://www.w3.org/1999/xlink" 
	 viewBox="0 0 512 512" xml:space="preserve">
<g>
	<g>
		<g>
			<path d="M502,349.579h-13.823v-11.752c0-5.522-4.478-10-10-10c-5.522,0-10,4.478-10,10v11.752H440.53v-82.186V164.851v-59.04
				c0-5.522-4.478-10-10-10H203.692c-55.675,0-107.669,22.05-146.403,62.087c-28.848,29.82-47.69,67.112-54.486,107.844
				c0,0.002-0.001,0.003-0.001,0.003C0.942,276.887,0,288.243,0,299.503v60.076c0,5.522,4.478,10,10,10h63.492
				c4.953,26.491,28.235,46.61,56.142,46.61c27.906,0,51.188-20.119,56.141-46.61H430.53h47.646H502c5.522,0,10-4.478,10-10
				C512,354.057,507.522,349.579,502,349.579z M68.781,174.851h57.585v82.543H24.859C32.069,226.57,47.095,198.295,68.781,174.851z
				 M129.634,396.189c-16.82,0-31.055-11.246-35.602-26.61h71.204C160.688,384.944,146.454,396.189,129.634,396.189z M420.53,349.58
				H20v-0.001v-50.076c0-7.358,0.446-14.765,1.33-22.109h399.2V349.58z M146.366,257.394v-82.543h130.189v82.543H146.366z
				 M420.53,257.394H296.556v-82.543H420.53V257.394z M420.53,154.851H90.426c32.169-25.327,71.575-39.04,113.266-39.04H420.53
				V154.851z"/>
			<path d="M47.288,335.397h225.803c5.522,0,10-4.477,10-10c0-5.522-4.478-10-10-10H47.288c-5.522,0-10,4.478-10,10
				C37.288,330.919,41.766,335.397,47.288,335.397z"/>
			<path d="M322.809,335.397h34.181c5.522,0,10-4.478,10-10c0-5.522-4.478-10-10-10h-34.181c-5.522,0-10,4.478-10,10
				C312.809,330.919,317.286,335.397,322.809,335.397z"/>
			<path d="M398.421,247.356c5.522,0,10-4.478,10-10v-15.537c0-5.522-4.478-10-10-10c-5.522,0-10,4.478-10,10v15.537
				C388.421,242.878,392.899,247.356,398.421,247.356z"/>
			<path d="M255.482,211.819c-5.522,0-10,4.478-10,10v15.537c0,5.522,4.478,10,10,10c5.522,0,10-4.478,10-10v-15.537
				C265.482,216.297,261.005,211.819,255.482,211.819z"/>
			<path d="M104.257,211.819c-5.522,0-10,4.478-10,10v15.537c0,5.522,4.478,10,10,10c5.522,0,10-4.478,10-10v-15.537
				C114.257,216.297,109.779,211.819,104.257,211.819z"/>
		</g>
	</g>
</g>
</svg>